<?xml version="1.0" encoding="UTF-8"?>
<svg version="1.1" xmlns="http://www.w3.org/2000/svg" width="1024" height="1024">
<path d="M0 0 C337.92 0 675.84 0 1024 0 C1024 337.92 1024 675.84 1024 1024 C686.08 1024 348.16 1024 0 1024 C0 686.08 0 348.16 0 0 Z " fill="#17454A" transform="translate(0,0)"/>
<path d="M0 0 C10.68095016 0.51921286 22.53124942 14.72495894 29.45214844 22.24072266 C42.42827982 36.98930353 51.49208354 54.44110859 60 72 C60.85078125 71.38253906 61.7015625 70.76507813 62.578125 70.12890625 C77.90492802 59.305683 98.60800718 47.64557587 117.875 47.9375 C119.04675781 47.95103516 119.04675781 47.95103516 120.2421875 47.96484375 C120.82226562 47.97644531 121.40234375 47.98804688 122 48 C134.28456755 81.90540644 128.99471236 123.22549318 114.23461914 155.53515625 C98.31437423 188.79358348 70.54495937 212.31986977 36.140625 224.98022461 C22.86559793 229.60485406 10.07932725 231.91050333 -4 231 C-5.06686035 230.94199219 -5.06686035 230.94199219 -6.15527344 230.8828125 C-35.0993844 229.14488796 -59.72914078 214.96370253 -81 196 C-81.70640625 195.37867188 -82.4128125 194.75734375 -83.140625 194.1171875 C-101.20537511 177.19097206 -112.71538193 154.66127164 -119.75 131.25 C-119.94883789 130.58943604 -120.14767578 129.92887207 -120.35253906 129.24829102 C-123.7412478 117.44738892 -124.43268994 106.07843186 -124.4375 93.875 C-124.44056152 93.04305115 -124.44362305 92.21110229 -124.44677734 91.35394287 C-124.46080172 76.75211546 -122.83709034 63.14416813 -119 49 C-95.81197825 48.44004158 -74.03431119 58.73476443 -56 73 C-55.73372803 72.48727539 -55.46745605 71.97455078 -55.19311523 71.44628906 C-41.7619655 45.63027239 -27.44112563 23.16309421 -4.87109375 4.3984375 C-2.07911093 2.13866921 -2.07911093 2.13866921 0 0 Z " fill="#E1E5D5" transform="translate(510,240)"/>
<path d="M0 0 C2.38950852 0.96485156 3.71824968 2.09313659 5.55419922 3.89819336 C6.20670654 4.53877686 6.85921387 5.17936035 7.53149414 5.83935547 C23.39804153 21.95157843 36.34666235 40.29896434 44.05029297 61.82788086 C43.95390545 65.30318644 43.3689099 66.49927041 40.93310547 69.01147461 C40.02302734 69.75526367 39.11294922 70.49905273 38.17529297 71.26538086 C18.53749975 88.13055164 6.31828359 113.39428426 -0.94970703 137.82788086 C-3.09876227 134.604298 -4.07016232 131.74267207 -5.32470703 128.07788086 C-11.24291582 111.73007321 -19.49597613 95.95822697 -30.94970703 82.82788086 C-31.73345703 81.9190918 -32.51720703 81.01030273 -33.32470703 80.07397461 C-37.68073084 75.13665709 -42.239889 70.42673906 -46.94970703 65.82788086 C-45.12535461 59.87486667 -42.96057414 54.37341402 -40.01220703 48.89038086 C-39.62742187 48.17164795 -39.24263672 47.45291504 -38.84619141 46.71240234 C-31.94631591 34.10214411 -24.07040545 22.08240669 -13.94970703 11.82788086 C-12.9209954 10.72889927 -11.89374644 9.62854736 -10.86767578 8.52709961 C-9.79221582 7.39689485 -8.71540473 6.26797415 -7.63720703 5.14038086 C-7.13318359 4.59784668 -6.62916016 4.0553125 -6.10986328 3.49633789 C-2.47409874 -0.21841217 -2.47409874 -0.21841217 0 0 Z " fill="#174449" transform="translate(512.94970703125,257.172119140625)"/>
<path d="M0 0 C1.98727863 8.73401564 2.34960913 17.18824834 2.3125 26.125 C2.31100952 26.80908936 2.30951904 27.49317871 2.3079834 28.19799805 C2.26649254 38.79612511 1.55876068 48.698207 -1 59 C-1.25523437 60.21429688 -1.51046875 61.42859375 -1.7734375 62.6796875 C-6.24055641 82.0645246 -16.40102676 99.36101936 -29.95703125 113.78125 C-32.06016039 116.01138979 -32.06016039 116.01138979 -34.0546875 118.5859375 C-36.9931545 122.23246884 -40.36967711 125.05589668 -44 128 C-44.50402344 128.41056641 -45.00804687 128.82113281 -45.52734375 129.24414062 C-60.63114138 141.38048625 -79.37756761 151.46098569 -99 153 C-95.72770114 149.63336459 -92.36714105 146.60032729 -88.6875 143.6875 C-65.97227874 125.1574597 -50.17623204 98.12169297 -46.40625 68.86328125 C-45.79490528 62.77452172 -45.81587597 56.67637459 -45.8125 50.5625 C-45.79413086 48.81743164 -45.79413086 48.81743164 -45.77539062 47.03710938 C-45.76494428 40.84939186 -46.09784774 35.19854762 -47.66674805 29.19897461 C-48.07587952 26.49930636 -47.80633745 24.60463628 -47 22 C-44.82481866 20.15064332 -42.83479585 18.68798083 -40.4375 17.1875 C-39.76928223 16.75735596 -39.10106445 16.32721191 -38.41259766 15.8840332 C-8.64617306 -2.88205769 -8.64617306 -2.88205769 0 0 Z " fill="#174348" transform="translate(622,304)"/>
<path d="M0 0 C7.41957437 1.11899822 13.66065876 3.31632184 20.375 6.625 C21.28894531 7.0679541 22.20289063 7.5109082 23.14453125 7.96728516 C30.17561552 11.44168797 36.72444102 15.27268748 43 20 C43.93070312 20.66515625 44.86140625 21.3303125 45.8203125 22.015625 C46.53960937 22.67046875 47.25890625 23.3253125 48 24 C47.875 27.375 47.875 27.375 47 31 C43.31729724 49.86005405 44.11961953 73.03725775 51 91 C51.38414062 92.09054687 51.76828125 93.18109375 52.1640625 94.3046875 C59.97516833 114.76234562 74.3064666 134.13302927 91.80859375 147.28125 C94.05507826 149.04319863 96.02157375 150.94496044 98 153 C65.3270554 146.87649924 37.97136867 129.32635401 19 102 C12.63937523 92.26522891 7.91585617 81.92879859 4 71 C3.74597412 70.30801514 3.49194824 69.61603027 3.23022461 68.90307617 C-1.68782503 54.99219545 -2.2706438 40.00422872 -2.3125 25.375 C-2.32059692 23.65253052 -2.32059692 23.65253052 -2.32885742 21.89526367 C-2.26665266 14.42474208 -1.45021295 7.32660531 0 0 Z " fill="#174348" transform="translate(402,304)"/>
<path d="M0 0 C9.36995047 5.72982582 16.17415411 14.30689303 19 25 C20.02657869 37.74557443 18.78421571 48.30015346 10.9375 58.74609375 C4.33762421 66.42377183 -4.87810384 71.30226159 -14.94140625 72.44921875 C-26.40043296 72.97448667 -36.04280779 70.51240707 -44.9296875 63.04296875 C-53.65024431 54.4375891 -57.21673284 45.24570268 -57.5 33.125 C-57.43782115 22.28938344 -53.72624353 13.76388976 -46.24609375 5.97265625 C-33.31050898 -5.38816168 -15.4499971 -7.75796441 0 0 Z " fill="#E2E5D6" transform="translate(540,620)"/>
<path d="M0 0 C10.87481905 6.50694125 16.92671173 13.38904035 20.30859375 25.62890625 C22.45489148 36.09362343 21.13430851 45.92933256 15.75 55.1875 C9.88046506 63.85205158 1.75783312 70.57033934 -8.71484375 72.71484375 C-22.41826005 74.42484271 -32.61541144 71.61525426 -43.55078125 63.20703125 C-50.22587761 57.19199227 -54.83910706 48.74708727 -55.46875 39.703125 C-55.75233399 27.49137407 -53.85981516 18.33343712 -45.9375 8.625 C-34.61706484 -3.19010964 -14.96893299 -7.37349418 0 0 Z " fill="#E2E6D6" transform="translate(303,619)"/>
<path d="M0 0 C42.06962025 0 42.06962025 0 54.04296875 10.8515625 C61.90808789 19.27009088 64.33702934 28.34457701 64.2109375 39.6171875 C63.61370733 49.19498985 59.82956823 57.23633231 52.99609375 63.9765625 C37.58956872 76.93017031 19.65830415 74 0 74 C0 49.58 0 25.16 0 0 Z " fill="#E2E5D6" transform="translate(414,510)"/>
<path d="M0 0 C42.89112051 0 42.89112051 0 51.26953125 7.91015625 C55.0930765 12.52775605 56.7152182 17.68106247 57.4375 23.5625 C56.48612731 31.03757115 54.35497652 36.64502348 49 42 C44.7 45 44.7 45 42 45 C42.4846875 45.77714355 42.969375 46.55428711 43.46875 47.35498047 C45.26138752 50.23397356 47.05000687 53.11538099 48.8359375 55.99853516 C49.61037578 57.24692707 50.38641209 58.49432911 51.1640625 59.74072266 C52.2802409 61.53030972 53.39066265 63.32335402 54.5 65.1171875 C55.1703125 66.19597168 55.840625 67.27475586 56.53125 68.38623047 C58 71 58 71 58 73 C46.43489622 74.53763312 46.43489622 74.53763312 41 73 C37.03804866 69.26739462 35.19303007 64.92213415 33 60 C31.85980331 58.08813006 30.6958227 56.19007908 29.5 54.3125 C27 50.25 27 50.25 27 48 C23.04 48 19.08 48 15 48 C15 56.58 15 65.16 15 74 C10.05 74 5.1 74 0 74 C0 49.58 0 25.16 0 0 Z " fill="#E1E4D5" transform="translate(575,617)"/>
<path d="M0 0 C42.26970954 0 42.26970954 0 51 8 C55.50953524 13.89385769 56.76630306 19.83411933 56.41796875 27.16796875 C55.57011229 32.91279056 53.40643158 37.03236327 49 40.8125 C48.01 41.534375 47.02 42.25625 46 43 C44.6655237 43.99847423 43.33195418 44.99816377 42 46 C42.37809814 46.60473145 42.75619629 47.20946289 43.14575195 47.83251953 C44.87076118 50.59496724 46.59166057 53.35995301 48.3125 56.125 C48.90740234 57.07632813 49.50230469 58.02765625 50.11523438 59.0078125 C52.96123336 63.58684998 55.72025886 68.11131323 58 73 C51.97264179 74.33941294 45.84699917 75.51889204 40 73 C33.27197656 66.32796566 28.28504692 56.14018768 26 47 C22.37 47 18.74 47 15 47 C15 55.91 15 64.82 15 74 C10.05 74 5.1 74 0 74 C0 49.58 0 25.16 0 0 Z " fill="#E1E5D4" transform="translate(340,617)"/>
<path d="M0 0 C40.97866667 0 40.97866667 0 49 8 C50.61172697 10.2750902 51.76311848 12.47866459 53 15 C53.495 15.99 53.495 15.99 54 17 C55.22916763 33.48293648 55.22916763 33.48293648 50 40 C45.33940526 45.38997163 40.01556487 47.99037996 33 49 C26.98959616 49.31479905 21.01983382 49.1347724 15 49 C15 57.25 15 65.5 15 74 C10.05 74 5.1 74 0 74 C0 49.58 0 25.16 0 0 Z " fill="#E2E6D6" transform="translate(416,617)"/>
<path d="M0 0 C4.95 0 9.9 0 15 0 C17.68579329 6.55627895 20.36916921 13.11354078 23.05053711 19.67163086 C23.95844054 21.89128774 24.86694577 24.11069857 25.77612305 26.32983398 C30.64336619 38.21107887 35.47126295 50.10565095 40.16015625 62.05859375 C40.54860214 63.04690689 40.93704803 64.03522003 41.33726501 65.05348206 C41.68882156 65.95420944 42.04037811 66.85493683 42.40258789 67.78295898 C42.71241104 68.57621078 43.02223419 69.36946259 43.34144592 70.18675232 C44 72 44 72 44 73 C38.72 73 33.44 73 28 73 C26.35 68.71 24.7 64.42 23 60 C12.44 59.67 1.88 59.34 -9 59 C-9.33 60.65 -9.66 62.3 -10 64 C-10.92879606 67.02700893 -11.9716621 70.00440698 -13 73 C-18.28 73 -23.56 73 -29 73 C-23.74667316 58.73457755 -18.10667151 44.63066924 -12.44793701 30.52203369 C-11.42283453 27.96474897 -10.39970181 25.40667814 -9.37658978 22.84859657 C-8.15176356 19.78669902 -6.92547566 16.7253873 -5.69921875 13.6640625 C-5.24197922 12.52152008 -4.78473969 11.37897766 -4.31364441 10.20181274 C-3.89262955 9.15246552 -3.47161469 8.10311829 -3.0378418 7.02197266 C-2.667332 6.09760406 -2.2968222 5.17323547 -1.91508484 4.22085571 C-1 2 -1 2 0 0 Z " fill="#E2E5D6" transform="translate(676,617)"/>
<path d="M0 0 C15.84 0 31.68 0 48 0 C48 4.62 48 9.24 48 14 C37.11 14 26.22 14 15 14 C15 19.28 15 24.56 15 30 C23.91 30 32.82 30 42 30 C42 34.29 42 38.58 42 43 C33.09 43 24.18 43 15 43 C15 48.61 15 54.22 15 60 C26.55 60 38.1 60 50 60 C50 64.62 50 69.24 50 74 C33.5 74 17 74 0 74 C0 49.58 0 25.16 0 0 Z " fill="#E0E4D3" transform="translate(494,510)"/>
<path d="M0 0 C15.84 0 31.68 0 48 0 C48 4.29 48 8.58 48 13 C37.11 13 26.22 13 15 13 C15 18.28 15 23.56 15 29 C23.91 29 32.82 29 42 29 C42 33.29 42 37.58 42 42 C33.09 42 24.18 42 15 42 C15 47.61 15 53.22 15 59 C26.55 59 38.1 59 50 59 C50 63.62 50 68.24 50 73 C33.5 73 17 73 0 73 C0 48.91 0 24.82 0 0 Z " fill="#E3E6D7" transform="translate(561,511)"/>
<path d="M0 0 C15.84 0 31.68 0 48 0 C48 4.62 48 9.24 48 14 C37.11 14 26.22 14 15 14 C15 19.28 15 24.56 15 30 C23.91 30 32.82 30 42 30 C42 34.29 42 38.58 42 43 C33.09 43 24.18 43 15 43 C15 48.61 15 54.22 15 60 C26.55 60 38.1 60 50 60 C50 64.29 50 68.58 50 73 C33.5 73 17 73 0 73 C0 48.91 0 24.82 0 0 Z " fill="#E3E6D6" transform="translate(798,617)"/>
<path d="M0 0 C4.96812179 4.96812179 4.16381932 15.64310969 4.3125 22.3125 C3.81383986 52.60610331 -11.05627775 77.79187231 -32.17578125 98.4765625 C-35.00915995 101.00818441 -37.79367127 102.9824283 -41 105 C-42.21771242 65.49199703 -28.22111406 30.38020807 -1.546875 1.625 C-0.78117188 0.820625 -0.78117188 0.820625 0 0 Z " fill="#164248" transform="translate(560,338)"/>
<path d="M0 0 C9.29065286 6.90778418 9.29065286 6.90778418 10.7734375 11.28125 C10.88558594 12.13203125 10.88558594 12.13203125 11 13 C9.40089132 14.00806851 7.79551738 15.00620385 6.1875 16 C4.84751953 16.8353125 4.84751953 16.8353125 3.48046875 17.6875 C1 19 1 19 -2 19 C-2.7425 18.236875 -3.485 17.47375 -4.25 16.6875 C-8.36892488 12.66218705 -12.60213427 10.88063244 -18.3125 10.4375 C-24.94647567 10.7096631 -30.29544625 14.0892695 -34.7421875 18.875 C-39.22613436 25.56292074 -38.90875745 33.2498421 -38 41 C-36.33980605 47.32826871 -32.28518855 51.34841518 -27 55 C-22.87134606 57.32898427 -18.65079908 57.68100986 -14 57 C-8.82244851 55.34795232 -4.50761003 53.27013395 -1 49 C3.77609498 50.64178265 7.79382904 53.26546702 12 56 C9.06441976 62.69312295 3.33141419 66.70965229 -3.3125 69.375 C-4.86793992 69.93661881 -6.42974899 70.48123146 -8 71 C-8.99 71.33 -9.98 71.66 -11 72 C-23.40303179 72.9955065 -33.34992449 71.07573302 -43 62.9765625 C-46.34570263 59.67006732 -48.75615662 56.11939635 -51 52 C-51.41378906 51.26265625 -51.82757813 50.5253125 -52.25390625 49.765625 C-56.61618288 40.70668119 -56.50414926 29.45318621 -53.375 20 C-49.12696746 10.05811332 -42.22763748 2.78018308 -32.5 -1.875 C-22.00651524 -5.93318122 -9.86748882 -5.62790209 0 0 Z " fill="#E2E5D6" transform="translate(224,620)"/>
<path d="M0 0 C1.69666771 1.6419365 3.35386499 3.30771167 5 5 C5.65484375 5.6703125 6.3096875 6.340625 6.984375 7.03125 C13.62375291 14.09441799 18.94307663 21.76426042 24 30 C24.54769043 30.89114502 24.54769043 30.89114502 25.10644531 31.80029297 C38.58587844 54.21000613 42.25180071 78.31632721 42 104 C22.32540049 92.8220417 6.9821395 69.5450493 1 48 C0.74323486 47.14792969 0.48646973 46.29585938 0.22192383 45.41796875 C-2.02133255 37.44312281 -2.42345024 30.0046979 -2.3125 21.75 C-2.31572266 20.53570312 -2.31894531 19.32140625 -2.32226562 18.0703125 C-2.28413485 11.70594023 -1.89948213 6.08439696 0 0 Z " fill="#174348" transform="translate(462,338)"/>
<path d="M0 0 C19.47 0 38.94 0 59 0 C59 4.62 59 9.24 59 14 C51.74 14 44.48 14 37 14 C37 33.8 37 53.6 37 74 C31.72 74 26.44 74 21 74 C21 54.2 21 34.4 21 14 C14.07 14 7.14 14 0 14 C0 9.38 0 4.76 0 0 Z " fill="#DFE3D3" transform="translate(723,617)"/>
<path d="M0 0 C5.82132273 2.96793735 9.4955763 7.34677917 12.0625 13.3125 C14.15929721 19.77762474 13.95271823 26.18934379 11.296875 32.453125 C7.47819299 39.28372522 2.60872471 43.51383962 -4.75 46.125 C-12.35068045 47.27661825 -18.04822926 45.71357068 -24.5 41.8125 C-30.64871203 35.49760656 -33.25577571 28.11015929 -33.15234375 19.421875 C-32.30009714 11.93777831 -28.40726222 6.25966558 -22.65625 1.59375 C-15.70879589 -2.763128 -7.56949337 -2.98425035 0 0 Z " fill="#174348" transform="translate(530.8125,631.5625)"/>
<path d="M0 0 C5.70228068 3.35985002 8.99157593 8.33766146 11.5625 14.375 C12.42339485 21.4948331 12.84020135 29.36369781 8.9609375 35.6640625 C4.80595386 40.7475341 0.17633781 45.13490541 -6.4375 46.375 C-13.66561641 46.95791261 -18.93655673 45.49184942 -25.125 41.75 C-30.35213093 36.38159526 -33.48709798 29.74962606 -33.75 22.25 C-33.63395769 15.83602491 -31.85505331 10.11051961 -27.56640625 5.2578125 C-19.85553107 -1.76797547 -9.9378745 -4.53439141 0 0 Z " fill="#174449" transform="translate(296.4375,631.625)"/>
<path d="M0 0 C20.32304038 0 20.32304038 0 27.8671875 6.64453125 C32.25765934 11.29759112 33.64487989 15.92229236 34.375 22.25 C33.69185852 29.08141477 31.92287431 35.77165518 26.6875 40.5 C18.18636742 47.25150481 11.09959766 46 0 46 C0 30.82 0 15.64 0 0 Z " fill="#17444A" transform="translate(429,524)"/>
<path d="M0 0 C4.48766241 2.07762149 7.10507256 4.72628827 9.296875 9.08203125 C10.55274331 12.50776091 10.88943712 15.50198984 10 19 C7.55849159 23.46559765 4.86299774 27.15603803 0 29 C-4.93804153 29.70077817 -8.88883198 29.55558401 -13.375 27.3125 C-14.24125 26.549375 -15.1075 25.78625 -16 25 C-16.78375 24.319375 -17.5675 23.63875 -18.375 22.9375 C-20.90009929 18.37289743 -20.97487287 14.08534428 -20 9 C-15.51206465 0.84933032 -8.86388142 -1.10798518 0 0 Z " fill="#E6E9DE" transform="translate(237,734)"/>
<path d="M0 0 C2.51625 -0.103125 5.0325 -0.20625 7.625 -0.3125 C8.79603271 -0.38078003 8.79603271 -0.38078003 9.99072266 -0.45043945 C13.86802467 -0.52672554 16.31075976 -0.18090236 19.3984375 2.26953125 C22.85450839 5.8968489 24.28605688 8.30500214 24.375 13.3125 C24.23468374 18.32261586 23.09136767 21.03670811 20 25 C13.31901375 29.40660795 8.74716606 28 0 28 C0 18.76 0 9.52 0 0 Z " fill="#F1F3E8" transform="translate(572,735)"/>
<path d="M0 0 C15.84 0 31.68 0 48 0 C48 4.62 48 9.24 48 14 C37.11 14 26.22 14 15 14 C15 19.28 15 24.56 15 30 C23.91 30 32.82 30 42 30 C42 34.29 42 38.58 42 43 C33.09 43 24.18 43 15 43 C15 48.61 15 54.22 15 60 C26.55 60 38.1 60 50 60 C50 64.62 50 69.24 50 74 C33.5 74 17 74 0 74 C0 49.58 0 25.16 0 0 Z M1 2 C1 25.1 1 48.2 1 72 C16.51 72 32.02 72 48 72 C48 68.37 48 64.74 48 61 C36.78 60.67 25.56 60.34 14 60 C14 43 14 43 15 42 C16.85174706 41.84213692 18.7090911 41.74892644 20.56640625 41.68359375 C21.69111328 41.64169922 22.81582031 41.59980469 23.97460938 41.55664062 C25.15861328 41.51732422 26.34261719 41.47800781 27.5625 41.4375 C28.75037109 41.39431641 29.93824219 41.35113281 31.16210938 41.30664062 C34.10794784 41.20016454 37.0538743 41.09815159 40 41 C40 37.7 40 34.4 40 31 C31.09 31 22.18 31 13 31 C13.33 25.39 13.66 19.78 14 14 C24.56 13.67 35.12 13.34 46 13 C46 9.37 46 5.74 46 2 C31.15 2 16.3 2 1 2 Z " fill="#F3F4E5" transform="translate(494,510)"/>
<path d="M0 0 C2.495625 -0.061875 4.99125 -0.12375 7.5625 -0.1875 C8.33408447 -0.21481201 9.10566895 -0.24212402 9.90063477 -0.27026367 C15.69891805 -0.33898297 20.43712182 0.76781578 24.9375 4.6875 C26.51074793 8.11162784 26.67423786 11.34606578 26 15 C24.20636089 17.8100346 22.98119065 19.50940468 20 21 C18.47851674 21.08372659 16.95344222 21.10730027 15.4296875 21.09765625 C14.62257324 21.09515869 13.81545898 21.09266113 12.98388672 21.09008789 C11.9579541 21.08098389 10.93202148 21.07187988 9.875 21.0625 C4.986875 21.0315625 4.986875 21.0315625 0 21 C0 14.07 0 7.14 0 0 Z " fill="#164146" transform="translate(590,630)"/>
<path d="M0 0 C2.51625 -0.061875 5.0325 -0.12375 7.625 -0.1875 C8.79603271 -0.22846802 8.79603271 -0.22846802 9.99072266 -0.27026367 C15.55658755 -0.33596886 19.56643365 0.89090916 23.875 4.625 C25.60670262 8.28081665 26.00777486 12.06835204 25 16 C23.11328125 18.765625 23.11328125 18.765625 20 21 C16.53327983 21.59877019 13.19193779 21.47224242 9.6875 21.3125 C6.490625 21.209375 3.29375 21.10625 0 21 C0 14.07 0 7.14 0 0 Z " fill="#164046" transform="translate(355,630)"/>
<path d="M0 0 C2.35125 -0.061875 4.7025 -0.12375 7.125 -0.1875 C7.85348145 -0.21481201 8.58196289 -0.24212402 9.33251953 -0.27026367 C14.83836794 -0.33970277 18.7217885 1.02555003 22.875 4.625 C24.6462101 8.36422132 24.67215693 11.94537596 24 16 C22.20606332 18.87029869 21.01736724 20.49131638 18 22 C16.62451844 22.08308638 15.24514204 22.10736016 13.8671875 22.09765625 C13.14128418 22.09515869 12.41538086 22.09266113 11.66748047 22.09008789 C10.74596191 22.08098389 9.82444336 22.07187988 8.875 22.0625 C5.94625 22.041875 3.0175 22.02125 0 22 C0 14.74 0 7.48 0 0 Z " fill="#174146" transform="translate(431,630)"/>
<path d="M0 0 C14 0 14 0 20 3 C21.72105424 6.44210849 21.51474617 10.23633647 21 14 C19 16.5625 19 16.5625 17 18 C18.44950455 21.7910119 20.15172566 25.3874638 22 29 C19.375 29.625 19.375 29.625 16 29 C14.24255619 26.52900758 12.91298977 24.01198761 11.58984375 21.28515625 C9.96961031 18.39338038 9.96961031 18.39338038 5 18 C5 21.63 5 25.26 5 29 C3.35 29 1.7 29 0 29 C0 19.43 0 9.86 0 0 Z " fill="#EDEFE4" transform="translate(647,734)"/>
<path d="M0 0 C6 0 6 0 7.87451172 1.65234375 C8.64432373 2.78349609 8.64432373 2.78349609 9.4296875 3.9375 C9.996875 4.74960937 10.5640625 5.56171875 11.1484375 6.3984375 C11.71820312 7.25695312 12.28796875 8.11546875 12.875 9 C13.46796875 9.85851562 14.0609375 10.71703125 14.671875 11.6015625 C16.1326498 13.72204204 17.56874346 15.85948576 19 18 C19.33 12.06 19.66 6.12 20 0 C21.65 0 23.3 0 25 0 C25 9.57 25 19.14 25 29 C20 29 20 29 18.23901367 27.34765625 C17.72056885 26.59355469 17.20212402 25.83945312 16.66796875 25.0625 C15.81235352 23.84433594 15.81235352 23.84433594 14.93945312 22.6015625 C14.36130859 21.74304688 13.78316406 20.88453125 13.1875 20 C12.59001953 19.14148438 11.99253906 18.28296875 11.37695312 17.3984375 C9.90299864 15.27594304 8.44951708 13.139258 7 11 C6.67 16.94 6.34 22.88 6 29 C4.02 29 2.04 29 0 29 C0 19.43 0 9.86 0 0 Z " fill="#EEF0E3" transform="translate(536,734)"/>
<path d="M0 0 C1.98 0 3.96 0 6 0 C7.57102489 3.80677259 9.1374843 7.61538764 10.69970703 11.42578125 C11.23197786 12.72219683 11.76550105 14.01809894 12.30029297 15.31347656 C13.06805964 17.17377949 13.83097659 19.03608163 14.59375 20.8984375 C15.05458984 22.01911621 15.51542969 23.13979492 15.99023438 24.29443359 C17 27 17 27 17 29 C15.35 29 13.7 29 12 29 C11.34 27.35 10.68 25.7 10 24 C5.38 24.33 0.76 24.66 -4 25 C-4.33 26.32 -4.66 27.64 -5 29 C-6.98 29 -8.96 29 -11 29 C-8.88355257 22.35831389 -6.4326092 15.89538217 -3.8125 9.4375 C-3.44447266 8.52419922 -3.07644531 7.61089844 -2.69726562 6.66992188 C-1.80056454 4.44563736 -0.90144402 2.22236555 0 0 Z " fill="#E1E4D5" transform="translate(512,734)"/>
<path d="M0 0 C1.98 0 3.96 0 6 0 C7.57102489 3.80677259 9.1374843 7.61538764 10.69970703 11.42578125 C11.23197786 12.72219683 11.76550105 14.01809894 12.30029297 15.31347656 C13.06805964 17.17377949 13.83097659 19.03608163 14.59375 20.8984375 C15.05458984 22.01911621 15.51542969 23.13979492 15.99023438 24.29443359 C17 27 17 27 17 29 C15.02 29 13.04 29 11 29 C10.505 26.525 10.505 26.525 10 24 C5.38 24 0.76 24 -4 24 C-4.99 26.475 -4.99 26.475 -6 29 C-7.65 29 -9.3 29 -11 29 C-8.88355257 22.35831389 -6.4326092 15.89538217 -3.8125 9.4375 C-3.44447266 8.52419922 -3.07644531 7.61089844 -2.69726562 6.66992188 C-1.80056454 4.44563736 -0.90144402 2.22236555 0 0 Z " fill="#E5E7DA" transform="translate(687,734)"/>
<path d="M0 0 C5 0 5 0 6.76098633 1.65234375 C7.27943115 2.40644531 7.79787598 3.16054688 8.33203125 3.9375 C9.18764648 5.15566406 9.18764648 5.15566406 10.06054688 6.3984375 C10.63869141 7.25695312 11.21683594 8.11546875 11.8125 9 C12.40998047 9.85851562 13.00746094 10.71703125 13.62304688 11.6015625 C15.09700136 13.72405696 16.55048292 15.860742 18 18 C18.33 12.06 18.66 6.12 19 0 C20.65 0 22.3 0 24 0 C24 9.57 24 19.14 24 29 C19 29 19 29 17.23901367 27.34765625 C16.72056885 26.59355469 16.20212402 25.83945312 15.66796875 25.0625 C15.09755859 24.25039063 14.52714844 23.43828125 13.93945312 22.6015625 C13.36130859 21.74304688 12.78316406 20.88453125 12.1875 20 C11.59001953 19.14148438 10.99253906 18.28296875 10.37695312 17.3984375 C8.90299864 15.27594304 7.44951708 13.139258 6 11 C5.67 16.94 5.34 22.88 5 29 C3.35 29 1.7 29 0 29 C0 19.43 0 9.86 0 0 Z " fill="#E7EADD" transform="translate(256,734)"/>
<path d="M0 0 C5 0 5 0 6.76098633 1.56054688 C7.53865356 2.62885742 7.53865356 2.62885742 8.33203125 3.71875 C8.90244141 4.48574219 9.47285156 5.25273438 10.06054688 6.04296875 C10.63869141 6.85378906 11.21683594 7.66460938 11.8125 8.5 C12.40998047 9.31082031 13.00746094 10.12164063 13.62304688 10.95703125 C15.09643664 12.96084133 16.5501343 14.97910374 18 17 C18.33 11.39 18.66 5.78 19 0 C20.65 0 22.3 0 24 0 C24 9.57 24 19.14 24 29 C22.35 29 20.7 29 19 29 C17.03387604 26.76495332 15.47872 24.72178862 13.875 22.25 C13.01833807 20.98430129 12.16156994 19.71867444 11.3046875 18.453125 C10.93327637 17.88754883 10.56186523 17.32197266 10.17919922 16.73925781 C8.85116132 14.78047065 7.41992657 12.89323542 6 11 C5.67 16.94 5.34 22.88 5 29 C3.35 29 1.7 29 0 29 C0 19.43 0 9.86 0 0 Z " fill="#E8EDE1" transform="translate(779,734)"/>
<path d="M0 0 C5 0 5 0 6.76098633 1.56054688 C7.53865356 2.62885742 7.53865356 2.62885742 8.33203125 3.71875 C8.90244141 4.48574219 9.47285156 5.25273438 10.06054688 6.04296875 C10.63869141 6.85378906 11.21683594 7.66460938 11.8125 8.5 C12.40998047 9.31082031 13.00746094 10.12164063 13.62304688 10.95703125 C15.09643664 12.96084133 16.5501343 14.97910374 18 17 C18.33 11.39 18.66 5.78 19 0 C20.65 0 22.3 0 24 0 C24 9.57 24 19.14 24 29 C18.375 27.875 18.375 27.875 15.66796875 24.18359375 C15.09755859 23.41982422 14.52714844 22.65605469 13.93945312 21.86914062 C13.36130859 21.06669922 12.78316406 20.26425781 12.1875 19.4375 C11.59001953 18.63119141 10.99253906 17.82488281 10.37695312 16.99414062 C8.90574975 15.00507367 7.45123539 13.00368225 6 11 C5.67 16.94 5.34 22.88 5 29 C3.35 29 1.7 29 0 29 C0 19.43 0 9.86 0 0 Z " fill="#E7EBDE" transform="translate(422,734)"/>
<path d="M0 0 C5 0 5 0 6.65332031 1.43701172 C7.12350586 2.09459473 7.59369141 2.75217773 8.078125 3.4296875 C8.59890625 4.14253906 9.1196875 4.85539063 9.65625 5.58984375 C10.1821875 6.34394531 10.708125 7.09804688 11.25 7.875 C11.79140625 8.62136719 12.3328125 9.36773438 12.890625 10.13671875 C16.73628827 15.47257653 16.73628827 15.47257653 18 18 C18.33 12.06 18.66 6.12 19 0 C20.65 0 22.3 0 24 0 C24 9.57 24 19.14 24 29 C18.375 27.875 18.375 27.875 15.66796875 24.18359375 C15.09755859 23.41982422 14.52714844 22.65605469 13.93945312 21.86914062 C13.36130859 21.06669922 12.78316406 20.26425781 12.1875 19.4375 C11.59001953 18.63119141 10.99253906 17.82488281 10.37695312 16.99414062 C8.90574975 15.00507367 7.45123539 13.00368225 6 11 C5.67 16.94 5.34 22.88 5 29 C3.35 29 1.7 29 0 29 C0 19.43 0 9.86 0 0 Z " fill="#ECEDE0" transform="translate(728,734)"/>
<path d="M0 0 C2.53370862 1.06945492 3.91099936 2.13089416 6 4 C6 4.66 6 5.32 6 6 C4.35 6.66 2.7 7.32 1 8 C0.34 7.34 -0.32 6.68 -1 6 C-6.16247784 5.35441102 -6.16247784 5.35441102 -10.7265625 7.2109375 C-13.20823118 10.69745362 -12.58053341 14.92292056 -12 19 C-10.70558862 21.79504081 -10.70558862 21.79504081 -8 23 C-5.24167407 23.30531089 -2.79288273 23.18619218 0 23 C0.99 21.02 1.98 19.04 3 17 C0.69 17 -1.62 17 -4 17 C-4 15.35 -4 13.7 -4 12 C-0.04 12 3.92 12 8 12 C8.44596577 21.9599022 8.44596577 21.9599022 5 26 C1.30541958 29.15125977 -2.09024156 29.52717931 -6.7890625 29.34765625 C-11.60617171 28.59019561 -14.25827098 25.83932495 -17.375 22.3125 C-19.47421689 18.0333271 -19.83218592 14.68209654 -19 10 C-14.68119702 1.5223497 -9.30991987 -1.51453242 0 0 Z " fill="#E2E6DA" transform="translate(831,734)"/>
<path d="M0 0 C1.640625 1.05078125 1.640625 1.05078125 4.078125 3.17578125 C4.078125 3.83578125 4.078125 4.49578125 4.078125 5.17578125 C2.428125 5.83578125 0.778125 6.49578125 -0.921875 7.17578125 C-1.581875 6.51578125 -2.241875 5.85578125 -2.921875 5.17578125 C-8.0792322 4.67271249 -8.0792322 4.67271249 -12.859375 6.17578125 C-14.55625095 9.36990069 -15.05410115 12.60567507 -14.921875 16.17578125 C-13.58236169 19.1737396 -12.8662775 20.70358 -9.921875 22.17578125 C-5.26911524 22.48104345 -5.26911524 22.48104345 -0.921875 21.17578125 C-0.20028076 19.53214991 0.47163921 17.86527739 1.078125 16.17578125 C-1.231875 16.17578125 -3.541875 16.17578125 -5.921875 16.17578125 C-5.921875 14.52578125 -5.921875 12.87578125 -5.921875 11.17578125 C-1.961875 11.17578125 1.998125 11.17578125 6.078125 11.17578125 C6.46528433 17.56391016 6.49386153 21.14674797 2.078125 26.17578125 C-2.13616306 28.755597 -6.1102222 28.72765541 -10.921875 28.17578125 C-15.63549805 26.18558485 -18.64360327 22.73232471 -20.921875 18.17578125 C-21.50013246 13.43596599 -21.39447929 10.05580302 -19.109375 5.80078125 C-14.09397873 -0.21769427 -7.87335898 -3.37658282 0 0 Z " fill="#E6EADE" transform="translate(475.921875,734.82421875)"/>
<path d="M0 0 C1.65 0 3.3 0 5 0 C5.02505615 0.55461914 5.0501123 1.10923828 5.07592773 1.68066406 C5.19227927 4.20398843 5.31482754 6.72697536 5.4375 9.25 C5.47681641 10.12269531 5.51613281 10.99539063 5.55664062 11.89453125 C5.59853516 12.73886719 5.64042969 13.58320312 5.68359375 14.453125 C5.72025146 15.22817383 5.75690918 16.00322266 5.79467773 16.80175781 C5.99603015 18.9574976 6.41729297 20.91801475 7 23 C8.45742463 23.08096803 9.91612807 23.13917774 11.375 23.1875 C12.59316406 23.23970703 12.59316406 23.23970703 13.8359375 23.29296875 C14.55007813 23.19628906 15.26421875 23.09960938 16 23 C18.08745045 19.86882433 18.27653996 18.93053776 18.4140625 15.33203125 C18.45273437 14.43935547 18.49140625 13.54667969 18.53125 12.62695312 C18.57765625 11.23379883 18.57765625 11.23379883 18.625 9.8125 C18.66367187 8.87212891 18.70234375 7.93175781 18.7421875 6.96289062 C18.83643187 4.6421229 18.92204025 2.32136252 19 0 C20.65 0 22.3 0 24 0 C24.14601614 3.54122827 24.2343056 7.08167644 24.3125 10.625 C24.35439453 11.62402344 24.39628906 12.62304688 24.43945312 13.65234375 C24.57759825 21.99630922 24.57759825 21.99630922 21.60546875 25.6484375 C17.53017471 29.32658894 14.82269875 29.33911817 9.48046875 29.28515625 C5.96802881 28.88136394 4.32197882 27.61222617 2 25 C0.11388911 21.89979315 -0.23930678 19.62315603 -0.1953125 16.015625 C-0.18886719 15.08105469 -0.18242187 14.14648438 -0.17578125 13.18359375 C-0.15902344 12.21550781 -0.14226562 11.24742187 -0.125 10.25 C-0.11597656 9.26644531 -0.10695313 8.28289063 -0.09765625 7.26953125 C-0.07412785 4.84610593 -0.04125368 2.42317778 0 0 Z " fill="#D8E3D8" transform="translate(319,734)"/>
<path d="M0 0 C3.0625 1.5 3.0625 1.5 5 3 C4.67 3.99 4.34 4.98 4 6 C2 6.75 2 6.75 0 7 C-0.33 6.67 -0.66 6.34 -1 6 C-3.33297433 5.95907063 -5.66705225 5.95758277 -8 6 C-7.92217262 7.95998083 -7.92217262 7.95998083 -7 10 C-4.52486771 11.255842 -4.52486771 11.255842 -1.5625 12.0625 C3.79291553 13.6893733 3.79291553 13.6893733 6 17 C6.77076412 23.93687708 6.77076412 23.93687708 4.1875 27.5 C-0.53835526 29.72393189 -4.87203517 29.90713998 -10 29 C-12.57025758 27.58243427 -13.9773478 26.18665103 -16 24 C-14.68 22.68 -13.36 21.36 -12 20 C-11.60167969 20.49113281 -11.20335937 20.98226562 -10.79296875 21.48828125 C-8.4878245 23.43183425 -7.2803281 23.316536 -4.3125 23.1875 C-3.50425781 23.16042969 -2.69601562 23.13335938 -1.86328125 23.10546875 C-0.94095703 23.05326172 -0.94095703 23.05326172 0 23 C-0.07152522 20.55273022 -0.07152522 20.55273022 -1 18 C-3.45471623 16.59302016 -3.45471623 16.59302016 -6.4375 15.8125 C-11.84398496 14.15601504 -11.84398496 14.15601504 -14 12 C-14.78837421 5.01725704 -14.78837421 5.01725704 -12.0625 1.5 C-7.93741191 -0.52045131 -4.51542416 -0.71038319 0 0 Z " fill="#E8ECE0" transform="translate(304,734)"/>
<path d="M0 0 C3.68623011 1.61272567 4.75355 2.630325 7 6 C4.6875 7.125 4.6875 7.125 2 8 C1.01 7.34 0.02 6.68 -1 6 C-4.84765451 5.58025587 -7.09631706 5.40547175 -10.375 7.5625 C-12.53538251 10.80307376 -12.93187446 13.11684403 -13 17 C-11.65437601 19.94755732 -10.91445456 21.54277272 -8 23 C-2.97381517 23.3793347 -0.10111964 22.98263247 4 20 C4.99 20.66 5.98 21.32 7 22 C6.03441599 24.54563057 5.06131195 25.94635204 3 27.75 C-1.39644772 29.58185322 -5.31538504 29.9121135 -10 29 C-14.23471692 26.60342944 -17.17281748 23.52526511 -19 19 C-19.72427331 14.36801952 -19.44977085 10.88288353 -17.3125 6.6875 C-11.91860902 0.418924 -8.22063204 -1.13574522 0 0 Z " fill="#E8EBDF" transform="translate(203,734)"/>
<path d="M0 0 C1.84584894 2.76877341 2.95663545 5.1737731 4.1640625 8.25390625 C4.56367187 9.27291016 4.96328125 10.29191406 5.375 11.34179688 C5.99375 12.93604492 5.99375 12.93604492 6.625 14.5625 C7.04523437 15.62919922 7.46546875 16.69589844 7.8984375 17.79492188 C11 25.74519328 11 25.74519328 11 28 C4.07 28 -2.86 28 -10 28 C-9.26567253 24.32836267 -8.50716236 21.41789183 -7.1875 17.98828125 C-6.83429687 17.06595703 -6.48109375 16.14363281 -6.1171875 15.19335938 C-5.74851562 14.24267578 -5.37984375 13.29199219 -5 12.3125 C-4.63132812 11.35021484 -4.26265625 10.38792969 -3.8828125 9.39648438 C-1.16636588 2.33273176 -1.16636588 2.33273176 0 0 Z " fill="#18464B" transform="translate(683,635)"/>
<path d="M0 0 C3 1.9375 3 1.9375 5 5 C5.62867003 8.12665982 5.64824105 10.87559496 5 14 C3.12379387 16.50160818 1.76108697 17.61945652 -1 19 C-4.91093991 19.3689566 -7.33546589 19.33226705 -10.875 17.5625 C-13.4860565 14.41387305 -13.95903508 12.21521594 -14.2109375 8.19140625 C-13.88957522 4.85280918 -12.42147504 3.21392004 -10 1 C-6.76584084 -0.61707958 -3.49624735 -0.56822376 0 0 Z " fill="#163F44" transform="translate(236,739)"/>
<path d="M0 0 C7.26 0 14.52 0 22 0 C22 1.65 22 3.3 22 5 C19.36 5 16.72 5 14 5 C14 12.92 14 20.84 14 29 C12.02 29 10.04 29 8 29 C8 21.08 8 13.16 8 5 C5.36 5 2.72 5 0 5 C0 3.35 0 1.7 0 0 Z " fill="#D7DFD4" transform="translate(616,734)"/>
<path d="M0 0 C1.32 0.66 2.64 1.32 4 2 C3 5 3 5 -0.0625 6.6875 C-1.031875 7.120625 -2.00125 7.55375 -3 8 C-0.69 8.33 1.62 8.66 4 9 C4 9.33 4 9.66 4 10 C0.04 10 -3.92 10 -8 10 C-8 11.65 -8 13.3 -8 15 C-5.69 15 -3.38 15 -1 15 C-1.75 19.75 -1.75 19.75 -4 22 C-8.7622893 22.54649221 -10.91068873 22.68081954 -15 20.125 C-17.805907 15.74077031 -17.89787548 12.07085866 -17 7 C-15.5 4.375 -15.5 4.375 -13 3 C-8.42595251 2.28764834 -5.05108573 2.74939682 -1 5 C-0.01 4.67 0.98 4.34 2 4 C1.34 2.68 0.68 1.36 0 0 Z " fill="#12363D" transform="translate(835,736)"/>
<path d="M0 0 C7.59 0 15.18 0 23 0 C23 1.65 23 3.3 23 5 C20.03 5 17.06 5 14 5 C14 12.92 14 20.84 14 29 C12.35 29 10.7 29 9 29 C9 21.08 9 13.16 9 5 C6.03 5 3.06 5 0 5 C0 3.35 0 1.7 0 0 Z " fill="#E8E8DA" transform="translate(375,734)"/>
<path d="M0 0 C3.27725968 0.05958654 3.94187595 0.22850076 6.625 2.375 C7.3675 3.365 7.3675 3.365 8.125 4.375 C7.795 4.705 7.465 5.035 7.125 5.375 C10.095 5.87 10.095 5.87 13.125 6.375 C13.125 6.705 13.125 7.035 13.125 7.375 C9.165 7.375 5.205 7.375 1.125 7.375 C1.125 9.025 1.125 10.675 1.125 12.375 C3.435 12.375 5.745 12.375 8.125 12.375 C7.52316251 14.39545442 6.85193904 16.39611039 6.125 18.375 C2.98628812 19.94435594 0.58644178 19.72701103 -2.875 19.375 C-6.45811824 16.80450213 -7.66202567 15.12041015 -8.875 10.875 C-8.875 4.76859128 -6.1790866 0.59797612 0 0 Z " fill="#14393F" transform="translate(468.875,738.625)"/>
<path d="M0 0 C0.99 0.33 1.98 0.66 3 1 C2.01 1.495 2.01 1.495 1 2 C1 25.1 1 48.2 1 72 C16.51 72 32.02 72 48 72 C48 68.37 48 64.74 48 61 C37.11 61 26.22 61 15 61 C15 60.67 15 60.34 15 60 C26.55 60 38.1 60 50 60 C50 64.62 50 69.24 50 74 C33.5 74 17 74 0 74 C0 49.58 0 25.16 0 0 Z " fill="#E8ECE1" transform="translate(494,510)"/>
<path d="M0 0 C6.84628585 0 8.0698031 0.00888823 13 4 C14.55024464 7.10048928 14.28992015 9.57894218 14 13 C12.20437595 15.75329021 10.94745078 17.52627461 8 19 C5.36 19 2.72 19 0 19 C0 12.73 0 6.46 0 0 Z " fill="#133D44" transform="translate(577,739)"/>
<path d="M0 0 C36 0 36 0 39 1 C38.67 1.66 38.34 2.32 38 3 C26.12 2.67 14.24 2.34 2 2 C2 25.1 2 48.2 2 72 C1.34 72 0.68 72 0 72 C0 48.24 0 24.48 0 0 Z " fill="#F1F3E4" transform="translate(575,617)"/>
<path d="M0 0 C1.65 0 3.3 0 5 0 C5 7.92 5 15.84 5 24 C9.29 24 13.58 24 18 24 C18 25.65 18 27.3 18 29 C12.06 29 6.12 29 0 29 C0 19.43 0 9.86 0 0 Z " fill="#EDF0E3" transform="translate(354,734)"/>
<path d="M0 0 C1.32 0.33 2.64 0.66 4 1 C3.01 1 2.02 1 1 1 C1.99 1.33 2.98 1.66 4 2 C4.984375 3.9609375 4.984375 3.9609375 5.75 6.375 C6.01296875 7.16648437 6.2759375 7.95796875 6.546875 8.7734375 C7 11 7 11 6 14 C5.01 11.69 4.02 9.38 3 7 C1.68 10.3 0.36 13.6 -1 17 C1.97 17.33 4.94 17.66 8 18 C8.33 17.34 8.66 16.68 9 16 C8.79375 16.61875 8.5875 17.2375 8.375 17.875 C8.25125 18.57625 8.1275 19.2775 8 20 C8.66 20.66 9.32 21.32 10 22 C5.38 22 0.76 22 -4 22 C-4.33 23.98 -4.66 25.96 -5 28 C-6.98 28 -8.96 28 -11 28 C-8.94661139 21.48529224 -6.50465317 15.21269971 -3.8125 8.9375 C-3.44447266 8.07189453 -3.07644531 7.20628906 -2.69726562 6.31445312 C-1.80127408 4.20829117 -0.90215345 2.10352808 0 0 Z " fill="#E6ECE1" transform="translate(512,735)"/>
<path d="M0 0 C1.98 0 3.96 0 6 0 C8 2.1875 8 2.1875 9 5 C8.55527344 6.0209375 8.55527344 6.0209375 8.1015625 7.0625 C6.52433929 11.26842855 6.53459378 15.35384874 6.375 19.8125 C6.33632813 20.69615234 6.29765625 21.57980469 6.2578125 22.49023438 C6.16399216 24.65982972 6.08092674 26.82988547 6 29 C4.02 29 2.04 29 0 29 C0 19.43 0 9.86 0 0 Z " fill="#E1DFCB" transform="translate(536,734)"/>
<path d="M0 0 C9.9 0 19.8 0 30 0 C29.67 0.66 29.34 1.32 29 2 C19.76 2 10.52 2 1 2 C1 25.1 1 48.2 1 72 C4.96 72 8.92 72 13 72 C13 63.75 13 55.5 13 47 C13.33 47 13.66 47 14 47 C14.33 55.91 14.66 64.82 15 74 C10.05 74 5.1 74 0 74 C0 49.58 0 25.16 0 0 Z " fill="#F5F8ED" transform="translate(340,617)"/>
<path d="M0 0 C0.33 0 0.66 0 1 0 C1.18175781 0.62648438 1.36351562 1.25296875 1.55078125 1.8984375 C1.80214844 2.71570313 2.05351563 3.53296875 2.3125 4.375 C2.55613281 5.18710937 2.79976562 5.99921875 3.05078125 6.8359375 C3.91368185 9.33184629 3.91368185 9.33184629 7 11 C9.05709596 11.24055468 9.05709596 11.24055468 11.1875 11.125 C12.445625 11.08375 13.70375 11.0425 15 11 C15.99 9.02 16.98 7.04 18 5 C15.69 5 13.38 5 11 5 C11 3.35 11 1.7 11 0 C14.96 0 18.92 0 23 0 C23.44596577 9.9599022 23.44596577 9.9599022 20 14 C16.30815734 17.14892462 12.92034518 17.5163577 8.2265625 17.359375 C4.751685 16.79851758 2.58382912 15.318821 0 13 C0 12.01 0 11.02 0 10 C0.763125 10.66 1.52625 11.32 2.3125 12 C4.84277939 14.29850538 4.84277939 14.29850538 8 14 C7.05125 13.401875 6.1025 12.80375 5.125 12.1875 C2 10 2 10 0 7 C-0.07905064 4.66800612 -0.08798769 2.33167378 0 0 Z " fill="#EFF2E7" transform="translate(816,746)"/>
<path d="M0 0 C1.98 0 3.96 0 6 0 C6 9.57 6 19.14 6 29 C4.02 29 2.04 29 0 29 C0 19.43 0 9.86 0 0 Z " fill="#D1D9CD" transform="translate(711,734)"/>
<path d="M0 0 C0.66 0.33 1.32 0.66 2 1 C1.34 2.32 0.68 3.64 0 5 C0.66 4.67 1.32 4.34 2 4 C1.649375 4.639375 1.29875 5.27875 0.9375 5.9375 C-0.35116341 10.14713381 -0.37128491 13.79157389 1 18 C3.75727815 20.53312969 3.75727815 20.53312969 7 22 C7.99 22.66 8.98 23.32 10 24 C7.36 23.67 4.72 23.34 2 23 C3.80466983 24.80466983 6.73102816 24.41492558 9.1875 24.62109375 C10.0846875 24.80865234 10.0846875 24.80865234 11 25 C11.33 25.66 11.66 26.32 12 27 C4.50335351 27.5170101 1.35020006 25.90938426 -4.375 20.9375 C-6.89368295 16.38449621 -6.99853075 12.07224676 -6 7 C-4.3491884 4.22797242 -2.42534146 2.1149555 0 0 Z " fill="#EAEEE2" transform="translate(223,736)"/>
<path d="M0 0 C1.65 0 3.3 0 5 0 C5 9.57 5 19.14 5 29 C3.35 29 1.7 29 0 29 C0 19.43 0 9.86 0 0 Z " fill="#EDEADB" transform="translate(406,734)"/>
<path d="M0 0 C1.65 0 3.3 0 5 0 C5 9.57 5 19.14 5 29 C3.35 29 1.7 29 0 29 C0 19.43 0 9.86 0 0 Z " fill="#EBE9D9" transform="translate(763,734)"/>
<path d="M0 0 C1.2065625 0.0309375 1.2065625 0.0309375 2.4375 0.0625 C4.30290627 4.76656799 5.80593005 9.00994036 6.4375 14.0625 C3.28791169 10.63903445 2.87570891 7.61987263 2.4375 3.0625 C1.7775 3.0625 1.1175 3.0625 0.4375 3.0625 C0.2828125 4.0834375 0.2828125 4.0834375 0.125 5.125 C-0.70975019 8.69165989 -2.05722754 11.72472194 -3.5625 15.0625 C-0.5925 15.0625 2.3775 15.0625 5.4375 15.0625 C5.4375 15.3925 5.4375 15.7225 5.4375 16.0625 C2.4675 16.3925 -0.5025 16.7225 -3.5625 17.0625 C-4.2225 16.0725 -4.8825 15.0825 -5.5625 14.0625 C-7.42419263 17.8953966 -7.58861653 19.95803387 -6.5625 24.0625 C-7.5625 25.0625 -7.5625 25.0625 -10.125 25.125 C-10.929375 25.104375 -11.73375 25.08375 -12.5625 25.0625 C-10.74256743 19.29938018 -8.67279789 13.67479455 -6.4375 8.0625 C-6.17179199 7.3914624 -5.90608398 6.7204248 -5.63232422 6.02905273 C-3.24133994 0.07905707 -3.24133994 0.07905707 0 0 Z " fill="#E8EFE4" transform="translate(688.5625,737.9375)"/>
<path d="M0 0 C0.66 0 1.32 0 2 0 C2 8.58 2 17.16 2 26 C0.68 26.33 -0.64 26.66 -2 27 C-3.06541016 25.50146484 -3.06541016 25.50146484 -4.15234375 23.97265625 C-5.08067945 22.66923542 -6.00906757 21.36585193 -6.9375 20.0625 C-7.64036133 19.0734668 -7.64036133 19.0734668 -8.35742188 18.06445312 C-10.51455518 14.89795165 -10.51455518 14.89795165 -13 12 C-13.04080783 10.00041636 -13.04254356 7.99954746 -13 6 C-10.05696634 8.77486031 -7.59670251 11.4677749 -5.3125 14.8125 C-4.549375 15.864375 -3.78625 16.91625 -3 18 C-2.34 18 -1.68 18 -1 18 C-0.505 9.09 -0.505 9.09 0 0 Z " fill="#E1E6D9" transform="translate(800,736)"/>
<path d="M0 0 C3.96 0 7.92 0 12 0 C12.48358209 7.97910448 12.48358209 7.97910448 10.3125 12.5625 C8 15 8 15 5.25 15.375 C4.5075 15.25125 3.765 15.1275 3 15 C3 13.68 3 12.36 3 11 C3.66 10.67 4.32 10.34 5 10 C5.72159424 8.35636866 6.39351421 6.68949614 7 5 C4.69 5 2.38 5 0 5 C0 3.35 0 1.7 0 0 Z " fill="#DCE0D5" transform="translate(470,746)"/>
<path d="M0 0 C-0.66 0 -1.32 0 -2 0 C-2.33 1.32 -2.66 2.64 -3 4 C-6.3 3.34 -9.6 2.68 -13 2 C-13 8.27 -13 14.54 -13 21 C-13.66 21 -14.32 21 -15 21 C-15.66 21.99 -16.32 22.98 -17 24 C-17 15.75 -17 7.5 -17 -1 C-3.60714286 -2.33928571 -3.60714286 -2.33928571 0 0 Z " fill="#E5E3CF" transform="translate(590,737)"/>
<path d="M0 0 C3.3 0 6.6 0 10 0 C6 2 6 2 2 2 C2 16.19 2 30.38 2 45 C4.64 45 7.28 45 10 45 C10 45.33 10 45.66 10 46 C6.7 46 3.4 46 0 46 C0 30.82 0 15.64 0 0 Z " fill="#334445" transform="translate(429,524)"/>
<path d="M0 0 C3.21020798 0.22930057 4.05574452 1.06193835 6.25 3.5 C8.42353069 7.84706138 8.55441313 11.22841162 8 16 C7.67 16.99 7.34 17.98 7 19 C6.34 19 5.68 19 5 19 C5 18.34 5 17.68 5 17 C3.02 18.32 1.04 19.64 -1 21 C0 19 1 17 2 15 C2.38964892 9.83715175 1.75074739 7.30551765 -1 3 C-0.67 2.01 -0.34 1.02 0 0 Z " fill="#EDF1E6" transform="translate(588,737)"/>
<path d="M0 0 C0.99 0 1.98 0 3 0 C3.16852247 1.60397277 3.33474886 3.2081869 3.5 4.8125 C3.5928125 5.70582031 3.685625 6.59914063 3.78125 7.51953125 C4 10 4 10 4 13 C7.0252594 16.99334241 10.21842482 17.89655957 15 19 C15 19.33 15 19.66 15 20 C8.90501137 20.42034404 5.87112047 20.07814737 1 16 C-1.19314132 14.02617281 -1.91049439 12.78139814 -2.24609375 9.8515625 C-2.41734654 3.62601981 -2.41734654 3.62601981 0 0 Z " fill="#DBE6DB" transform="translate(814,741)"/>
<path d="M0 0 C6.8359375 -0.1953125 6.8359375 -0.1953125 9 0 C11 2 11 2 11.3125 4.5 C11.1578125 5.7375 11.1578125 5.7375 11 7 C7.91111478 9.05925681 7.29064073 9.2390374 3.8125 9.125 C1.9253125 9.063125 1.9253125 9.063125 0 9 C0 6.03 0 3.06 0 0 Z " fill="#10363D" transform="translate(652,739)"/>
<path d="M0 0 C3.96 0 7.92 0 12 0 C12.26785714 9.10714286 12.26785714 9.10714286 10 13 C9.34 12.67 8.68 12.34 8 12 C8 11.01 8 10.02 8 9 C7.34 8.67 6.68 8.34 6 8 C6.33 7.01 6.66 6.02 7 5 C4.69 5 2.38 5 0 5 C0 3.35 0 1.7 0 0 Z " fill="#E9EADD" transform="translate(827,746)"/>
<path d="M0 0 C1.98 0 3.96 0 6 0 C6 0.66 6 1.32 6 2 C4.68 2 3.36 2 2 2 C2 10.25 2 18.5 2 27 C2.66 27 3.32 27 4 27 C4 21.06 4 15.12 4 9 C4.33 9 4.66 9 5 9 C5 15.6 5 22.2 5 29 C3.35 29 1.7 29 0 29 C0 19.43 0 9.86 0 0 Z " fill="#C8DFDB" transform="translate(536,734)"/>
<path d="M0 0 C0.33 0 0.66 0 1 0 C1 10.23 1 20.46 1 31 C4.96 31 8.92 31 13 31 C13 22.75 13 14.5 13 6 C13.33 6 13.66 6 14 6 C14.33 14.91 14.66 23.82 15 33 C10.05 33 5.1 33 0 33 C0 22.11 0 11.22 0 0 Z " fill="#E9EEE6" transform="translate(340,658)"/>
<path d="M0 0 C5.60710128 5.60710128 5.60710128 5.60710128 7.53515625 8.26171875 C7.95216797 8.82310547 8.36917969 9.38449219 8.79882812 9.96289062 C9.6482306 11.12212152 10.49454094 12.28362387 11.33789062 13.44726562 C13.59949748 16.48027326 15.37870926 18.703695 19 20 C16.125 20.625 16.125 20.625 13 21 C11 19 11 19 10.25 16.875 C8.4672102 12.77458347 5.75768415 9.49480098 3 6 C2.93941406 6.92683594 2.87882812 7.85367188 2.81640625 8.80859375 C2.73261719 10.00613281 2.64882813 11.20367188 2.5625 12.4375 C2.48128906 13.63246094 2.40007812 14.82742188 2.31640625 16.05859375 C2 19 2 19 1 20 C-1.33297433 20.04092937 -3.66705225 20.04241723 -6 20 C-6 19.67 -6 19.34 -6 19 C-4.02 19 -2.04 19 0 19 C0 12.73 0 6.46 0 0 Z " fill="#0A2E38" transform="translate(427,744)"/>
<path d="M0 0 C3.68578694 3.68578694 6.72115518 7.0605803 9.8125 11.1875 C10.99779297 12.75564453 10.99779297 12.75564453 12.20703125 14.35546875 C14 17 14 17 14 19 C15.65 19 17.3 19 19 19 C19 19.33 19 19.66 19 20 C16.375 20.5 16.375 20.5 13 20 C11.20162221 18.07224251 9.81501995 16.06643612 8.39453125 13.84765625 C7.04850361 11.70132899 7.04850361 11.70132899 4 11 C3.71125 11.5775 3.4225 12.155 3.125 12.75 C1.5625 15.875 1.5625 15.875 0 19 C0 12.73 0 6.46 0 0 Z " fill="#0C2F3A" transform="translate(261,744)"/>
<path d="M0 0 C1.98 0.66 3.96 1.32 6 2 C6 3.32 6 4.64 6 6 C4.0625 6.5625 4.0625 6.5625 2 7 C1.67 6.67 1.34 6.34 1 6 C-1.33297433 5.95907063 -3.66705225 5.95758277 -6 6 C-6.33 7.65 -6.66 9.3 -7 11 C-7.66 10.34 -8.32 9.68 -9 9 C-9.99 9.495 -9.99 9.495 -11 10 C-11.21620175 7.3335118 -11.30894168 5.55995679 -10 3.1875 C-6.76011038 1.26381554 -3.7174181 1.81717616 0 2 C0 1.34 0 0.68 0 0 Z " fill="#E2E6D8" transform="translate(302,734)"/>
<path d="M0 0 C1.65 0 3.3 0 5 0 C5 0.66 5 1.32 5 2 C4.34 2 3.68 2 3 2 C3 10.25 3 18.5 3 27 C-1.5 24.75 -1.5 24.75 -3 21 C-1.68 20.67 -0.36 20.34 1 20 C0.67 13.4 0.34 6.8 0 0 Z " fill="#E1E3D3" transform="translate(556,734)"/>
<path d="M0 0 C13.75 -0.125 13.75 -0.125 16 1 C15.34 2.32 14.68 3.64 14 5 C13.34 4.01 12.68 3.02 12 2 C9.79274927 1.63637182 9.79274927 1.63637182 7.375 1.8125 C6.55773437 1.83957031 5.74046875 1.86664062 4.8984375 1.89453125 C3.95871094 1.94673828 3.95871094 1.94673828 3 2 C2.3533402 10.01396246 1.83322777 17.95787245 2 26 C1.34 26 0.68 26 0 26 C0 17.42 0 8.84 0 0 Z " fill="#DBE0D0" transform="translate(648,736)"/>
<path d="M0 0 C0.33 0 0.66 0 1 0 C1 8.25 1 16.5 1 25 C1.66 25 2.32 25 3 25 C3 19.06 3 13.12 3 7 C3.66 7.33 4.32 7.66 5 8 C5 14.27 5 20.54 5 27 C3.35 27 1.7 27 0 27 C0 18.09 0 9.18 0 0 Z " fill="#F8F8E9" transform="translate(422,736)"/>
<path d="M0 0 C1.375 2.125 1.375 2.125 2 4 C0.35 4.66 -1.3 5.32 -3 6 C-3.66 5.34 -4.32 4.68 -5 4 C-8.0737746 3.34600541 -10.85599094 3 -14 3 C-14.99 2.67 -15.98 2.34 -17 2 C-10.74788862 -1.3441526 -6.71928524 -3.13566645 0 0 Z " fill="#DDE0D3" transform="translate(478,736)"/>
<path d="M0 0 C1.65 0 3.3 0 5 0 C4.67 8.58 4.34 17.16 4 26 C3.67 26 3.34 26 3 26 C2.90912109 24.93458984 2.90912109 24.93458984 2.81640625 23.84765625 C2.73261719 22.92855469 2.64882813 22.00945313 2.5625 21.0625 C2.48128906 20.14597656 2.40007813 19.22945312 2.31640625 18.28515625 C2.23955024 16.03840268 2.23955024 16.03840268 1 15 C0.76346477 12.47403741 0.57826308 9.96892793 0.4375 7.4375 C0.39431641 6.72658203 0.35113281 6.01566406 0.30664062 5.28320312 C0.20028223 3.52238088 0.09961154 1.7612168 0 0 Z " fill="#E0E4D6" transform="translate(747,734)"/>
<path d="M0 0 C3.73129265 3.73129265 6.72098967 7.11358299 9.8125 11.3125 C10.21919922 11.86228516 10.62589844 12.41207031 11.04492188 12.97851562 C12.03368611 14.31625547 13.01738585 15.65773623 14 17 C13.67 17.66 13.34 18.32 13 19 C9.7 14.71 6.4 10.42 3 6 C2.67 9.96 2.34 13.92 2 18 C1.34 18 0.68 18 0 18 C0 12.06 0 6.12 0 0 Z " fill="#0D2E39" transform="translate(784,744)"/>
<path d="M0 0 C0.66 0 1.32 0 2 0 C2.50559908 1.43554025 3.0042749 2.8735202 3.5 4.3125 C3.7784375 5.11300781 4.056875 5.91351562 4.34375 6.73828125 C5 9 5 9 5 12 C2.03 12 -0.94 12 -4 12 C-2.66666667 8 -1.33333333 4 0 0 Z " fill="#1E434A" transform="translate(689,741)"/>
<path d="M0 0 C2.9512645 1.47563225 3.06923915 3.50079352 4.125 6.5625 C4.47820313 7.57441406 4.83140625 8.58632813 5.1953125 9.62890625 C5.46085938 10.41136719 5.72640625 11.19382812 6 12 C2.7 12 -0.6 12 -4 12 C-2.68 8.04 -1.36 4.08 0 0 Z " fill="#133B42" transform="translate(514,741)"/>
<path d="M0 0 C1.65 0 3.3 0 5 0 C5 6.27 5 12.54 5 19 C4.67 19 4.34 19 4 19 C4 13.39 4 7.78 4 2 C3.34 2 2.68 2 2 2 C2.02320313 3.13179687 2.04640625 4.26359375 2.0703125 5.4296875 C2.08906901 6.91145175 2.10726934 8.39322312 2.125 9.875 C2.14175781 10.62136719 2.15851563 11.36773438 2.17578125 12.13671875 C2.1933959 14.09194461 2.10320189 16.04742021 2 18 C1.34 18.66 0.68 19.32 0 20 C0 13.4 0 6.8 0 0 Z " fill="#E8F2EA" transform="translate(338,734)"/>
<path d="M0 0 C1.65 0 3.3 0 5 0 C5 7.92 5 15.84 5 24 C9.29 24 13.58 24 18 24 C18 25.65 18 27.3 18 29 C17.34 28.34 16.68 27.68 16 27 C12.04 26.67 8.08 26.34 4 26 C4 17.75 4 9.5 4 1 C2.68 0.67 1.36 0.34 0 0 Z " fill="#EDE8D3" transform="translate(354,734)"/>
<path d="M0 0 C2.21637574 3.32456361 3.68814818 6.75791424 5.1875 10.4375 C5.47302734 11.10587891 5.75855469 11.77425781 6.05273438 12.46289062 C8.075048 17.42764597 8.075048 17.42764597 7.67578125 20.47265625 C7.45277344 20.97667969 7.22976563 21.48070312 7 22 C6.15973604 20.23244474 5.32801278 18.46082737 4.5 16.6875 C4.0359375 15.70136719 3.571875 14.71523438 3.09375 13.69921875 C2 11 2 11 2 8 C0.05000871 8.19471111 0.05000871 8.19471111 -2 9 C-3.1470525 11.00213945 -3.1470525 11.00213945 -4 13 C-3.71517632 11.58194169 -3.42181856 10.16559621 -3.125 8.75 C-2.96257813 7.96109375 -2.80015625 7.1721875 -2.6328125 6.359375 C-2.00849925 4.03168856 -1.15161458 2.10968048 0 0 Z " fill="#163840" transform="translate(683,635)"/>
<path d="M0 0 C1.65 0 3.3 0 5 0 C5 9.57 5 19.14 5 29 C3.68 28.67 2.36 28.34 1 28 C1.99 28 2.98 28 4 28 C4 19.42 4 10.84 4 2 C3.34 2 2.68 2 2 2 C2 7.94 2 13.88 2 20 C1.67 20 1.34 20 1 20 C0.67 13.4 0.34 6.8 0 0 Z " fill="#F6F6EC" transform="translate(798,734)"/>
<path d="M0 0 C0.33 0.66 0.66 1.32 1 2 C5.37934119 1.48041715 9.68803391 0.94324258 14 0 C7.34104052 5.65688305 -2.47615767 7.33146335 -11 8 C-7.85214347 4.5823272 -5.41881673 2.47293891 -1 1 C-0.67 0.67 -0.34 0.34 0 0 Z " fill="#11353C" transform="translate(534,449)"/>
<path d="M0 0 C0.33 0.66 0.66 1.32 1 2 C0.34 3.65 -0.32 5.3 -1 7 C4.94 6.67 10.88 6.34 17 6 C17.33 6.99 17.66 7.98 18 9 C11.07 9 4.14 9 -3 9 C-2.24872886 5.24364431 -1.75994274 3.16789693 0 0 Z " fill="#12373E" transform="translate(676,654)"/>
<path d="M0 0 C0.99 0 1.98 0 3 0 C3.66 2.31 4.32 4.62 5 7 C4.01 7 3.02 7 2 7 C1.67 6.34 1.34 5.68 1 5 C-3.62 5 -8.24 5 -13 5 C-12.67 4.01 -12.34 3.02 -12 2 C-11.21753906 1.93941406 -10.43507813 1.87882813 -9.62890625 1.81640625 C-8.61699219 1.73261719 -7.60507812 1.64882813 -6.5625 1.5625 C-5.55316406 1.48128906 -4.54382813 1.40007813 -3.50390625 1.31640625 C-1.06359221 1.26788532 -1.06359221 1.26788532 0 0 Z " fill="#CBD3C6" transform="translate(521,753)"/>
<path d="M0 0 C0 0.33 0 0.66 0 1 C-4.95 2.485 -4.95 2.485 -10 4 C-5.545 3.505 -5.545 3.505 -1 3 C-2.98 3.99 -2.98 3.99 -5 5 C-6.26717607 5.84993517 -7.51806692 6.72474121 -8.75 7.625 C-9.36359375 8.07101562 -9.9771875 8.51703125 -10.609375 8.9765625 C-11.06828125 9.31429687 -11.5271875 9.65203125 -12 10 C-12.33 9.01 -12.66 8.02 -13 7 C-13.66 8.65 -14.32 10.3 -15 12 C-15.671875 10.23046875 -15.671875 10.23046875 -16 8 C-14.890625 6.11328125 -14.890625 6.11328125 -13.25 4.3125 C-12.71890625 3.71050781 -12.1878125 3.10851562 -11.640625 2.48828125 C-8.19290962 -0.63928913 -4.40538315 -0.08312044 0 0 Z " fill="#F2F5EB" transform="translate(472,734)"/>
<path d="M0 0 C0.33 0.99 0.66 1.98 1 3 C0.67 3.33 0.34 3.66 0 4 C0.66 4.66 1.32 5.32 2 6 C-2.62 6 -7.24 6 -12 6 C-12 6.66 -12 7.32 -12 8 C-12.66 7.67 -13.32 7.34 -14 7 C-13.67 5.35 -13.34 3.7 -13 2 C-9.79984144 0.93328048 -8.11455706 1.05154528 -4.8125 1.4375 C-3.46091797 1.59025391 -3.46091797 1.59025391 -2.08203125 1.74609375 C-1.39496094 1.82988281 -0.70789063 1.91367187 0 2 C0 1.34 0 0.68 0 0 Z " fill="#F4F5EA" transform="translate(520,751)"/>
<path d="M0 0 C0.66 0.33 1.32 0.66 2 1 C2.1953125 7.0546875 2.1953125 7.0546875 2 9 C0.09276551 10.90723449 -1.77997606 12.47373354 -4 14 C-6.15634036 14 -7.92446352 13.5534764 -10 13 C-8.68 12.67 -7.36 12.34 -6 12 C-6 11.34 -6 10.68 -6 10 C-5.0409375 9.7215625 -5.0409375 9.7215625 -4.0625 9.4375 C-1.58329642 8.06564692 -1.58329642 8.06564692 -1.3125 4.4375 C-1.209375 3.303125 -1.10625 2.16875 -1 1 C-0.67 0.67 -0.34 0.34 0 0 Z " fill="#DBDDD0" transform="translate(245,744)"/>
<path d="M0 0 C0 1.65 0 3.3 0 5 C-0.99 5.495 -0.99 5.495 -2 6 C-2.40729228 8.32156597 -2.74438677 10.6568787 -3 13 C-4.32 13.33 -5.64 13.66 -7 14 C-7.7833257 6.01007787 -7.7833257 6.01007787 -4.625 1.9375 C-2 0 -2 0 0 0 Z " fill="#DFE5D9" transform="translate(191,739)"/>
<path d="M0 0 C1.20462891 -0.02126953 1.20462891 -0.02126953 2.43359375 -0.04296875 C4.5625 0.1875 4.5625 0.1875 6.5625 2.1875 C3.2625 2.1875 -0.0375 2.1875 -3.4375 2.1875 C-3.4375 5.1575 -3.4375 8.1275 -3.4375 11.1875 C-0.4675 11.1875 2.5025 11.1875 5.5625 11.1875 C5.5625 11.5175 5.5625 11.8475 5.5625 12.1875 C3.91675434 12.21438151 2.27088587 12.23384123 0.625 12.25 C-0.29152344 12.26160156 -1.20804688 12.27320313 -2.15234375 12.28515625 C-4.4375 12.1875 -4.4375 12.1875 -5.4375 11.1875 C-5.53573937 9.52320949 -5.56723631 7.85468069 -5.5625 6.1875 C-5.56507813 5.28 -5.56765625 4.3725 -5.5703125 3.4375 C-5.33551659 -0.54021891 -3.53720995 0.02829768 0 0 Z " fill="#EEECDD" transform="translate(655.4375,736.8125)"/>
<path d="M0 0 C1.65 0 3.3 0 5 0 C4.67 6.93 4.34 13.86 4 21 C3.34 20.67 2.68 20.34 2 20 C2 14.06 2 8.12 2 2 C1.34 2 0.68 2 0 2 C0 1.34 0 0.68 0 0 Z " fill="#DCE2D6" transform="translate(441,734)"/>
<path d="M0 0 C1.89725648 1.63853968 2.92272382 2.784481 3.77734375 5.16796875 C5.68892405 9.59575059 8.70513303 13.19531526 11.63085938 17.00390625 C12.82882497 18.61621885 13.92308824 20.30443681 15 22 C14.67 22.99 14.34 23.98 14 25 C13.5153125 24.24976563 13.030625 23.49953125 12.53125 22.7265625 C8.01734011 15.83416932 3.27241891 9.3381206 -2 3 C-1 1 -1 1 0 0 Z " fill="#E8EDE3" transform="translate(471,343)"/>
<path d="M0 0 C1.75 0.125 1.75 0.125 4 1 C6.85757802 4.32096905 8.07852567 5.9399034 7.75 10.375 C7.5025 11.24125 7.255 12.1075 7 13 C3.07016106 9.63156663 0.96806099 5.03391715 0 0 Z " fill="#E7E9DC" transform="translate(588,737)"/>
<path d="M0 0 C1.65 0 3.3 0 5 0 C5 6.93 5 13.86 5 21 C4.67 21 4.34 21 4 21 C4 14.73 4 8.46 4 2 C3.34 2 2.68 2 2 2 C2 7.28 2 12.56 2 18 C1.67 18 1.34 18 1 18 C0.67 12.06 0.34 6.12 0 0 Z " fill="#F2F5ED" transform="translate(319,734)"/>
<path d="M0 0 C2.02045442 0.60183749 4.02111039 1.27306096 6 2 C6.33 2.66 6.66 3.32 7 4 C6.67 4.66 6.34 5.32 6 6 C6.99 6 7.98 6 9 6 C9.12375 6.969375 9.2475 7.93875 9.375 8.9375 C9.58125 9.948125 9.7875 10.95875 10 12 C10.66 12.33 11.32 12.66 12 13 C9.1875 12.9375 9.1875 12.9375 6 12 C4.3125 8.75 4.3125 8.75 3 5 C2.03182008 3.31464976 1.04349839 1.63978318 0 0 Z " fill="#E1E3D4" transform="translate(433,748)"/>
<path d="M0 0 C2 2 2 2 2.3125 4.875 C1.8732593 9.26740697 0.02480804 10.97519196 -3 14 C-3.33 13.34 -3.66 12.68 -4 12 C-6.52733235 11.34444881 -6.52733235 11.34444881 -9 11 C-7.03617993 9.49440461 -5.21736634 8.10868317 -3 7 C-1.94647157 4.69034152 -0.94280904 2.3570226 0 0 Z " fill="#D5E2D8" transform="translate(665,739)"/>
<path d="M0 0 C2.31 0 4.62 0 7 0 C7 0.33 7 0.66 7 1 C5.02 1 3.04 1 1 1 C1 7.27 1 13.54 1 20 C-2 17 -2 17 -2.109375 13.49609375 C-2.00591906 12.14188199 -1.8855215 10.7888795 -1.75 9.4375 C-1.69714844 8.75236328 -1.64429688 8.06722656 -1.58984375 7.36132812 C-1.16526159 2.33052317 -1.16526159 2.33052317 0 0 Z " fill="#092D36" transform="translate(440,733)"/>
<path d="M0 0 C0.99 0.33 1.98 0.66 3 1 C4.66362417 1.34820041 6.32995171 1.68404492 8 2 C5.08596738 3.94268841 2.14191424 5.46395304 -1 7 C-1 6.01 -1 5.02 -1 4 C-1.61875 4.61875 -2.2375 5.2375 -2.875 5.875 C-4.25 7.25 -5.625 8.625 -7 10 C-6.84819155 7.34335221 -6.47988575 5.54782138 -4.703125 3.51953125 C-3.125 2.125 -3.125 2.125 0 0 Z " fill="#EFF2E5" transform="translate(192,735)"/>
<path d="M0 0 C3.96 0 7.92 0 12 0 C12 0.66 12 1.32 12 2 C10.35 2.66 8.7 3.32 7 4 C7 4.33 7 4.66 7 5 C4.69 5 2.38 5 0 5 C0 3.35 0 1.7 0 0 Z " fill="#CED9D0" transform="translate(827,746)"/>
<path d="M0 0 C2 1 2 1 3.4375 2.5 C5.0377353 4.25083992 5.0377353 4.25083992 8 5 C8 4.34 8 3.68 8 3 C9.65 3 11.3 3 13 3 C13.33 4.32 13.66 5.64 14 7 C6.33183857 7.76681614 6.33183857 7.76681614 3.06640625 5.88671875 C1.4375 4.5 1.4375 4.5 -1 2 C-0.67 1.34 -0.34 0.68 0 0 Z " fill="#ECF2E9" transform="translate(289,756)"/>
<path d="M0 0 C0.33 0 0.66 0 1 0 C1.33 5.28 1.66 10.56 2 16 C2.99 16.33 3.98 16.66 5 17 C5 18.65 5 20.3 5 22 C1.09133824 18.74278187 -0.02404631 15.96109791 -1 11 C-1.51017442 3.02034884 -1.51017442 3.02034884 0 0 Z " fill="#1A3236" transform="translate(264,647)"/>
<path d="M0 0 C0.598125 0.515625 1.19625 1.03125 1.8125 1.5625 C2.534375 2.036875 3.25625 2.51125 4 3 C4.99 2.67 5.98 2.34 7 2 C7 2.66 7 3.32 7 4 C9.31 4.33 11.62 4.66 14 5 C14 5.33 14 5.66 14 6 C7.67370431 6.90375653 2.32629569 6.90375653 -4 6 C-4 5.67 -4 5.34 -4 5 C-2.35 4.67 -0.7 4.34 1 4 C0.67 2.68 0.34 1.36 0 0 Z " fill="#0E3138" transform="translate(667,758)"/>
<path d="M0 0 C2.3125 0.1875 2.3125 0.1875 4 1 C3.01 1.495 3.01 1.495 2 2 C2.66 2.66 3.32 3.32 4 4 C2.35 5.98 0.7 7.96 -1 10 C-1.103125 9.360625 -1.20625 8.72125 -1.3125 8.0625 C-1.539375 7.381875 -1.76625 6.70125 -2 6 C-2.99 5.67 -3.98 5.34 -5 5 C-2.75 2.4375 -2.75 2.4375 0 0 Z " fill="#EBF0E5" transform="translate(819,735)"/>
<path d="M0 0 C1.21236328 0.02707031 1.21236328 0.02707031 2.44921875 0.0546875 C3.37154297 0.08949219 3.37154297 0.08949219 4.3125 0.125 C6.11480168 3.95489106 6.50872241 6.90621808 6.3125 11.125 C4.3125 8.125 4.3125 8.125 3.3125 3.125 C-0.3175 2.795 -3.9475 2.465 -7.6875 2.125 C-4.48369983 -0.01086678 -3.66810033 -0.10632175 0 0 Z " fill="#EDEEE3" transform="translate(627.6875,287.875)"/>
<path d="M0 0 C0.495 0.474375 0.99 0.94875 1.5 1.4375 C4.05879349 3.03674593 5.26594526 3.2792613 8.1875 3.5625 C9.445625 3.706875 10.70375 3.85125 12 4 C12.33 4.66 12.66 5.32 13 6 C10.69 5.67 8.38 5.34 6 5 C6 5.66 6 6.32 6 7 C3.625 6.75 3.625 6.75 1 6 C-0.375 4.0625 -0.375 4.0625 -1 2 C-0.67 1.34 -0.34 0.68 0 0 Z " fill="#D7DDD0" transform="translate(291,754)"/>
<path d="M0 0 C3.04335527 3.04335527 3.60305853 4.21121462 4.6875 8.1875 C4.93886719 9.08855469 5.19023438 9.98960937 5.44921875 10.91796875 C5.63097656 11.60503906 5.81273437 12.29210937 6 13 C4.35 13 2.7 13 1 13 C0.67 11.68 0.34 10.36 0 9 C0.99 9.495 0.99 9.495 2 10 C1.34 6.7 0.68 3.4 0 0 Z " fill="#EEECDF" transform="translate(523,750)"/>
<path d="M0 0 C0.99 1.32 1.98 2.64 3 4 C2.01 4.495 2.01 4.495 1 5 C1 5.66 1 6.32 1 7 C5.29 7 9.58 7 14 7 C14 7.33 14 7.66 14 8 C9.71 8 5.42 8 1 8 C0.67 8.66 0.34 9.32 0 10 C-1.60339848 6.88228073 -2.18974141 5.60988311 -1.125 2.1875 C-0.75375 1.465625 -0.3825 0.74375 0 0 Z " fill="#C5CDC0" transform="translate(682,750)"/>
<path d="M0 0 C0.66 0 1.32 0 2 0 C4.26916619 3.87612435 4.21275635 6.57344516 3.609375 10.93359375 C3 13 3 13 0.6875 15.125 C-2.1261937 16.04108632 -3.29901665 16.10040063 -6 15 C-5.030625 14.525625 -4.06125 14.05125 -3.0625 13.5625 C-0.19522563 12.29806053 -0.19522563 12.29806053 1 11 C1.21326403 5.3952291 1.21326403 5.3952291 0 0 Z " fill="#152D34" transform="translate(308,748)"/>
<path d="M0 0 C0.66 0 1.32 0 2 0 C2.33 3.3 2.66 6.6 3 10 C1.02 10.99 1.02 10.99 -1 12 C-1.02698189 10.37509046 -1.04638757 8.75005367 -1.0625 7.125 C-1.07410156 6.22007812 -1.08570313 5.31515625 -1.09765625 4.3828125 C-1 2 -1 2 0 0 Z " fill="#D8D8C6" transform="translate(815,741)"/>
<path d="M0 0 C0.99 0.33 1.98 0.66 3 1 C2.67 1.66 2.34 2.32 2 3 C3.32 2.67 4.64 2.34 6 2 C4.322967 4.04371546 3.46127163 4.92353251 0.80859375 5.36328125 C0.02613281 5.34652344 -0.75632812 5.32976563 -1.5625 5.3125 C-2.34753906 5.30863281 -3.13257813 5.30476562 -3.94140625 5.30078125 C-6 5 -6 5 -8 3 C-6.02 3 -4.04 3 -2 3 C-2 2.34 -2 1.68 -2 1 C-1.34 0.67 -0.68 0.34 0 0 Z " fill="#F3F5EB" transform="translate(471,758)"/>
<path d="M0 0 C3.3 0.33 6.6 0.66 10 1 C10.33 2.32 10.66 3.64 11 5 C9.02 5 7.04 5 5 5 C5 4.34 5 3.68 5 3 C2.525 2.01 2.525 2.01 0 1 C0 0.67 0 0.34 0 0 Z " fill="#EDEFE3" transform="translate(323,758)"/>
<path d="M0 0 C0.33 0 0.66 0 1 0 C0.6875 3.375 0.6875 3.375 0 7 C-3 9 -3 9 -7 9 C-5.76448756 5.29346269 -4.03334922 4.35084565 -1 2 C-0.67 1.34 -0.34 0.68 0 0 Z " fill="#E7E8DA" transform="translate(480,752)"/>
<path d="M0 0 C0.99 0.33 1.98 0.66 3 1 C2.67 2.65 2.34 4.3 2 6 C-1.0534135 6.29359745 -3.95743422 6.4451258 -7 6 C-9.5625 3.5 -9.5625 3.5 -11 1 C-10.46375 1.28875 -9.9275 1.5775 -9.375 1.875 C-6.64719516 3.16711808 -3.87387282 4.08558592 -1 5 C-0.67 3.35 -0.34 1.7 0 0 Z " fill="#0B2831" transform="translate(302,752)"/>
<path d="M0 0 C0.7425 0.185625 1.485 0.37125 2.25 0.5625 C5.00646092 1.00102787 6.37203973 0.7007894 9 0 C9.99 0.33 10.98 0.66 12 1 C12 2.32 12 3.64 12 5 C7.71 4.01 3.42 3.02 -1 2 C-0.67 1.34 -0.34 0.68 0 0 Z " fill="#DEE1D1" transform="translate(225,758)"/>
<path d="M0 0 C0.33 0 0.66 0 1 0 C1.3510188 4.91426326 0.40977137 7.73655834 -2 12 C-2.391875 12.78375 -2.78375 13.5675 -3.1875 14.375 C-3.455625 14.91125 -3.72375 15.4475 -4 16 C-4.66 14.35 -5.32 12.7 -6 11 C-5.195625 10.113125 -4.39125 9.22625 -3.5625 8.3125 C-1.2960841 5.61712968 -0.31582634 3.57936522 0 0 Z " fill="#193036" transform="translate(669,741)"/>
<path d="M0 0 C0.99 0 1.98 0 3 0 C4.18005182 3.68766192 4.20993972 7.15110517 4 11 C3.01 12.485 3.01 12.485 2 14 C2 10.7 2 7.4 2 4 C1.34 4 0.68 4 0 4 C0 2.68 0 1.36 0 0 Z " fill="#DDDCCD" transform="translate(628,633)"/>
<path d="M0 0 C1.5 1.3125 1.5 1.3125 3 3 C3 3.99 3 4.98 3 6 C0.03 6 -2.94 6 -6 6 C-5.34 4.35 -4.68 2.7 -4 1 C-3.67 1.66 -3.34 2.32 -3 3 C-0.97536745 3.65213292 -0.97536745 3.65213292 1 4 C0.67 2.68 0.34 1.36 0 0 Z " fill="#0E2C34" transform="translate(691,747)"/>
<path d="M0 0 C1.051875 -0.02126953 1.051875 -0.02126953 2.125 -0.04296875 C4 0.1875 4 0.1875 6 2.1875 C4.63875 2.125625 4.63875 2.125625 3.25 2.0625 C0.04873748 2.18562548 -1.27989692 2.68675347 -4 4.1875 C-4.99 4.1875 -5.98 4.1875 -7 4.1875 C-6.67 3.1975 -6.34 2.2075 -6 1.1875 C-3.77109005 0.07304502 -2.46944894 0.02269714 0 0 Z " fill="#103A41" transform="translate(295,749.8125)"/>
<path d="M0 0 C0.33 1.32 0.66 2.64 1 4 C-1.31 4.33 -3.62 4.66 -6 5 C-6 5.66 -6 6.32 -6 7 C-7.32 7.33 -8.64 7.66 -10 8 C-8.76736651 4.30209954 -7.79947549 4.0645154 -4.4375 2.3125 C-3.61121094 1.87550781 -2.78492188 1.43851562 -1.93359375 0.98828125 C-1.29550781 0.66214844 -0.65742187 0.33601563 0 0 Z " fill="#EAEEE1" transform="translate(566,440)"/>
<path d="M0 0 C0.66 0 1.32 0 2 0 C1.40312566 3.34249629 0.26396123 5.46436342 -2 8 C-2.66 8 -3.32 8 -4 8 C-4 7.34 -4 6.68 -4 6 C-4.99 5.67 -5.98 5.34 -7 5 C-6.030625 4.54625 -5.06125 4.0925 -4.0625 3.625 C-0.92920418 2.34213779 -0.92920418 2.34213779 0 0 Z " fill="#E1E3D2" transform="translate(338,755)"/>
<path d="M0 0 C0.99 0 1.98 0 3 0 C2.55090939 1.48199902 2.09043436 2.96055236 1.625 4.4375 C1.36976563 5.26121094 1.11453125 6.08492187 0.8515625 6.93359375 C0 9 0 9 -2 10 C-2 7.36 -2 4.72 -2 2 C-1.34 2 -0.68 2 0 2 C0 1.34 0 0.68 0 0 Z " fill="#103A45" transform="translate(677,752)"/>
<path d="M0 0 C2.96404505 2.80804268 5.44499019 5.18315774 7 9 C5.02 8.34 3.04 7.68 1 7 C0.67 4.69 0.34 2.38 0 0 Z " fill="#DFE3D5" transform="translate(738,745)"/>
<path d="M0 0 C-0.66 0 -1.32 0 -2 0 C-2.33 1.32 -2.66 2.64 -3 4 C-6 2 -6 2 -8 -1 C-4.59745511 -2.2151946 -3.06748874 -1.86240388 0 0 Z " fill="#D7DED2" transform="translate(590,737)"/>
<path d="M0 0 C-3.53854164 2.27477677 -5.70947373 1.99082706 -9.75 1.125 C-10.73484375 0.92132812 -11.7196875 0.71765625 -12.734375 0.5078125 C-13.85585937 0.25644531 -13.85585937 0.25644531 -15 0 C-15 -0.33 -15 -0.66 -15 -1 C-13.06403108 -1.22211116 -11.12610672 -1.42722992 -9.1875 -1.625 C-8.10855469 -1.74101563 -7.02960938 -1.85703125 -5.91796875 -1.9765625 C-3 -2 -3 -2 0 0 Z " fill="#DCDDCD" transform="translate(241,737)"/>
<path d="M0 0 C0.66 0.66 1.32 1.32 2 2 C0.76446724 3.20254524 -0.48902339 4.38666232 -1.75 5.5625 C-2.79414062 6.55443359 -2.79414062 6.55443359 -3.859375 7.56640625 C-6 9 -6 9 -8.265625 8.71484375 C-8.83796875 8.47894531 -9.4103125 8.24304688 -10 8 C-8 6 -8 6 -6.125 5.125 C-3.59843593 3.78740726 -1.94073664 2.07936068 0 0 Z " fill="#D9DECE" transform="translate(532,433)"/>
<path d="M0 0 C1.32 1.32 2.64 2.64 4 4 C3.525625 4.391875 3.05125 4.78375 2.5625 5.1875 C0.64820367 7.40808374 0.38733012 9.13375709 0 12 C-0.33 12 -0.66 12 -1 12 C-1.14285714 3.42857143 -1.14285714 3.42857143 0 0 Z " fill="#102F37" transform="translate(462,338)"/>
<path d="M0 0 C2.52588702 2.36292656 3.88820837 3.66462511 5 7 C3.02 7 1.04 7 -1 7 C-1.33 5.68 -1.66 4.36 -2 3 C-1.01 3.33 -0.02 3.66 1 4 C0.67 2.68 0.34 1.36 0 0 Z " fill="#F4F5EB" transform="translate(664,756)"/>
<path d="M0 0 C2.475 0.495 2.475 0.495 5 1 C5.33 2.98 5.66 4.96 6 7 C4.35 6.67 2.7 6.34 1 6 C0.67 4.02 0.34 2.04 0 0 Z " fill="#DFE3D3" transform="translate(660,754)"/>
<path d="M0 0 C0.66 0.33 1.32 0.66 2 1 C2.40729228 3.32156597 2.74438677 5.6568787 3 8 C2.67 7.34 2.34 6.68 2 6 C0.68 6.99 -0.64 7.98 -2 9 C-1.34 6.03 -0.68 3.06 0 0 Z " fill="#153239" transform="translate(514,741)"/>
<path d="M0 0 C0.33 1.32 0.66 2.64 1 4 C-0.1875 5.8125 -0.1875 5.8125 -2 7 C-3.32 6.67 -4.64 6.34 -6 6 C-4.02 4.02 -2.04 2.04 0 0 Z " fill="#17393D" transform="translate(273,633)"/>
<path d="M0 0 C0.99 0.33 1.98 0.66 3 1 C2.67 2.32 2.34 3.64 2 5 C-0.64 5.33 -3.28 5.66 -6 6 C-4 4 -2 2 0 0 Z " fill="#1B3A41" transform="translate(529,451)"/>
<path d="M0 0 C5.78461538 4.18461538 5.78461538 4.18461538 6.875 8.3125 C6.936875 9.6428125 6.936875 9.6428125 7 11 C4.0444623 8.24829249 1.88436685 5.58029701 0 2 C0 1.34 0 0.68 0 0 Z " fill="#0C2F35" transform="translate(472,405)"/>
<path d="M0 0 C3 3.75 3 3.75 3 6 C4.98 5.67 6.96 5.34 9 5 C7.35 6.65 5.7 8.3 4 10 C0 4 0 4 0 0 Z " fill="#0C2B32" transform="translate(566,303)"/>
<path d="M0 0 C1.32 0 2.64 0 4 0 C4 0.99 4 1.98 4 3 C5.32 2.67 6.64 2.34 8 2 C7.01 2.99 6.02 3.98 5 5 C3.02 4.34 1.04 3.68 -1 3 C-0.67 2.01 -0.34 1.02 0 0 Z " fill="#113B41" transform="translate(580,753)"/>
<path d="M0 0 C0.33 0.66 0.66 1.32 1 2 C-0.21958756 4.67371119 -1.18298261 6.75412136 -3 9 C-5.75 9.9375 -5.75 9.9375 -8 10 C-7.59007812 9.52949219 -7.18015625 9.05898438 -6.7578125 8.57421875 C-6.21898437 7.95160156 -5.68015625 7.32898438 -5.125 6.6875 C-4.59132813 6.07261719 -4.05765625 5.45773437 -3.5078125 4.82421875 C-1.8359553 2.86501788 -1.8359553 2.86501788 0 0 Z " fill="#EEF4E9" transform="translate(306,665)"/>
<path d="M0 0 C0.66 0 1.32 0 2 0 C2.66 0.66 3.32 1.32 4 2 C4.66 2 5.32 2 6 2 C6.59732819 4.76264289 7 7.16032769 7 10 C5.83043409 8.52312468 4.66441854 7.04343707 3.5 5.5625 C2.8503125 4.73878906 2.200625 3.91507812 1.53125 3.06640625 C0 1 0 1 0 0 Z " fill="#123036" transform="translate(540,263)"/>
<path d="M0 0 C2 2 2 2 2 5 C1.34 5 0.68 5 0 5 C0 5.66 0 6.32 0 7 C-0.66 7 -1.32 7 -2 7 C-2.33 7.66 -2.66 8.32 -3 9 C-2.5020163 5.26512223 -2.12508244 3.18762365 0 0 Z " fill="#E8EDE1" transform="translate(666,643)"/>
<path d="M0 0 C0.99 0 1.98 0 3 0 C3 0.66 3 1.32 3 2 C3.99 2.33 4.98 2.66 6 3 C1.545 4.485 1.545 4.485 -3 6 C-3.33 5.01 -3.66 4.02 -4 3 C-2.68 2.34 -1.36 1.68 0 1 C0 0.67 0 0.34 0 0 Z " fill="#D2DBCE" transform="translate(512,616)"/>
<path d="M0 0 C0.33 0.66 0.66 1.32 1 2 C1.66 2 2.32 2 3 2 C3.33 3.32 3.66 4.64 4 6 C2.68 6.33 1.36 6.66 0 7 C-0.93423645 3.98968256 -1.04449911 3.13349732 0 0 Z " fill="#DCE2D5" transform="translate(507,746)"/>
<path d="M0 0 C1.11375 0.3403125 1.11375 0.3403125 2.25 0.6875 C1.59 2.3375 0.93 3.9875 0.25 5.6875 C-0.41 5.0275 -1.07 4.3675 -1.75 3.6875 C-4.32061311 3.03982207 -4.32061311 3.03982207 -6.75 2.6875 C-4.29511132 0.41445492 -3.41240272 -0.38777304 0 0 Z " fill="#D9DDCE" transform="translate(662.75,747.3125)"/>
<path d="M0 0 C2.31 0 4.62 0 7 0 C5.74458443 2.51083114 4.49936512 2.87125446 2 4 C1.34 2.68 0.68 1.36 0 0 Z " fill="#16454C" transform="translate(827,752)"/>
<path d="M0 0 C0 2.64 0 5.28 0 8 C-0.99 8 -1.98 8 -3 8 C-3 5.69 -3 3.38 -3 1 C-1 0 -1 0 0 0 Z " fill="#1F4F57" transform="translate(616,637)"/>
<path d="M0 0 C1.33332095 2.6666419 0.67102033 4.16680303 0 7 C-1.65 7.33 -3.3 7.66 -5 8 C-3.35 5.36 -1.7 2.72 0 0 Z " fill="#E9EDE1" transform="translate(606,399)"/>
<path d="M0 0 C2.97 0 5.94 0 9 0 C8.67 0.99 8.34 1.98 8 3 C5.36 2.34 2.72 1.68 0 1 C0 0.67 0 0.34 0 0 Z " fill="#12353C" transform="translate(822,763)"/>
<path d="M0 0 C0.66 0 1.32 0 2 0 C2.33 1.32 2.66 2.64 3 4 C-0.01031744 4.93423645 -0.86650268 5.04449911 -4 4 C-2.66666667 2.66666667 -1.33333333 1.33333333 0 0 Z " fill="#19474F" transform="translate(473,752)"/>
<path d="M0 0 C0.66 0.66 1.32 1.32 2 2 C1.625 4.125 1.625 4.125 1 6 C0.01 6 -0.98 6 -2 6 C-1.125 1.125 -1.125 1.125 0 0 Z " fill="#E1E2D1" transform="translate(459,740)"/>
</svg>
